HIERARCHY
ROOT root
{
  OFFSET 0 90.5966 0
  CHANNELS 6 Xposition Yposition Zposition Zrotation Xrotation Yrotation
  JOINT torso_1
  {
    OFFSET 0 4.93189 -1.1181
    CHANNELS 6 Xposition Yposition Zposition Zrotation Xrotation Yrotation
    JOINT torso_2
    {
      OFFSET 0 5.45428 1.04046
      CHANNELS 6 Xposition Yposition Zposition Zrotation Xrotation Yrotation
      JOINT torso_3
      {
        OFFSET -9.96389e-18 5.81666 0.111686
        CHANNELS 6 Xposition Yposition Zposition Zrotation Xrotation Yrotation
        JOINT torso_4
        {
          OFFSET -1.07264e-17 6.3178 -0.430704
          CHANNELS 6 Xposition Yposition Zposition Zrotation Xrotation Yrotation
          JOINT torso_5
          {
            OFFSET -1.91593e-17 7.38567 -1.4624
            CHANNELS 6 Xposition Yposition Zposition Zrotation Xrotation Yrotation
            JOINT torso_6
            {
              OFFSET -2.45986e-17 9.22288 -0.888062
              CHANNELS 6 Xposition Yposition Zposition Zrotation Xrotation Yrotation
              JOINT torso_7
              {
                OFFSET -2.82008e-17 10.2464 1.53133
                CHANNELS 6 Xposition Yposition Zposition Zrotation Xrotation Yrotation
                JOINT neck_1
                {
                  OFFSET -1.25459e-17 4.64811 0.694664
                  CHANNELS 6 Xposition Yposition Zposition Zrotation Xrotation Yrotation
                  JOINT neck_2
                  {
                    OFFSET -1.75924e-17 4.68175 0.4096
                    CHANNELS 6 Xposition Yposition Zposition Zrotation Xrotation Yrotation
                    JOINT head
                    {
                      OFFSET -1.9515e-17 4.6908 0.74295
                      CHANNELS 6 Xposition Yposition Zposition Zrotation Xrotation Yrotation
                      End Site
                      {
                        OFFSET 0 0.1 0
                      }
                    }
                  }
                }
                JOINT l_shoulder
                {
                  OFFSET 1.19736 -7.38744 7.31601
                  CHANNELS 6 Xposition Yposition Zposition Zrotation Xrotation Yrotation
                  JOINT l_up_arm
                  {
                    OFFSET 12.5803 3.15559 -3.17425
                    CHANNELS 6 Xposition Yposition Zposition Zrotation Xrotation Yrotation
                    JOINT l_low_arm
                    {
                      OFFSET 28.3639 0.0580795 0.133078
                      CHANNELS 6 Xposition Yposition Zposition Zrotation Xrotation Yrotation
                      JOINT l_hand
                      {
                        OFFSET 23.5335 0.0481878 0.110415
                        CHANNELS 6 Xposition Yposition Zposition Zrotation Xrotation Yrotation
                        End Site
                        {
                          OFFSET 0.1 0 0
                        }
                      }
                    }
                  }
                }
                JOINT r_shoulder
                {
                  OFFSET -1.19736 -7.38743 7.31591
                  CHANNELS 6 Xposition Yposition Zposition Zrotation Xrotation Yrotation
                  JOINT r_up_arm
                  {
                    OFFSET -12.5803 3.15559 -3.17425
                    CHANNELS 6 Xposition Yposition Zposition Zrotation Xrotation Yrotation
                    JOINT r_low_arm
                    {
                      OFFSET -28.3639 0.0580795 0.133078
                      CHANNELS 6 Xposition Yposition Zposition Zrotation Xrotation Yrotation
                      JOINT r_hand
                      {
                        OFFSET -23.5335 0.0481876 0.110415
                        CHANNELS 6 Xposition Yposition Zposition Zrotation Xrotation Yrotation
                        End Site
                        {
                          OFFSET -0.1 0 0
                        }
                      }
                    }
                  }
                }
              }
            }
          }
        }
      }
    }
  }
  JOINT l_up_leg
  {
    OFFSET 8.96978 -4.08401 1.97395
    CHANNELS 6 Xposition Yposition Zposition Zrotation Xrotation Yrotation
    JOINT l_low_leg
    {
      OFFSET -0.827718 -37.6515 -0.63625
      CHANNELS 6 Xposition Yposition Zposition Zrotation Xrotation Yrotation
      JOINT l_foot
      {
        OFFSET -2.25899 -39.2341 -5.87393
        CHANNELS 6 Xposition Yposition Zposition Zrotation Xrotation Yrotation
        JOINT l_toes
        {
          OFFSET 0.756579 -9.59872 12.1348
          CHANNELS 6 Xposition Yposition Zposition Zrotation Xrotation Yrotation
          End Site
          {
            OFFSET 0 0 0.1
          }
        }
      }
    }
  }
  JOINT r_up_leg
  {
    OFFSET -8.96978 -4.08401 1.97395
    CHANNELS 6 Xposition Yposition Zposition Zrotation Xrotation Yrotation
    JOINT r_low_leg
    {
      OFFSET 0.827718 -37.6515 -0.63625
      CHANNELS 6 Xposition Yposition Zposition Zrotation Xrotation Yrotation
      JOINT r_foot
      {
        OFFSET 2.25899 -39.2341 -5.87393
        CHANNELS 6 Xposition Yposition Zposition Zrotation Xrotation Yrotation
        JOINT r_toes
        {
          OFFSET -0.756579 -9.59872 12.1348
          CHANNELS 6 Xposition Yposition Zposition Zrotation Xrotation Yrotation
          End Site
          {
            OFFSET 0 0 0.1
          }
        }
      }
    }
  }
}
MOTION
Frames: 5
Frame Time: 0.020000
31.0117 91.6267 -70.3573 3.01203 3.8111 -19.6412 0 4.93189 -1.1181 -0.169162 -2.23815 1.20193 0 5.45428 1.04046 -0.186238 -1.55163 1.12074 -9.96389e-18 5.81666 0.111686 -0.187309 -0.40659 1.0859 -1.07264e-17 6.3178 -0.430704 -0.187417 1.37113 1.08546 -1.91593e-17 7.38567 -1.4624 0.0756844 1.57728 1.0683 -2.45986e-17 9.22288 -0.888062 0.484867 1.39483 0.947575 -2.82008e-17 10.2464 1.53133 -0.0024296 0.502998 0.050148 -1.25459e-17 4.64811 0.694664 -0.666885 -1.75597 -4.89293 -1.75924e-17 4.68175 0.4096 0.235427 -4.02978 -2.50949 -1.9515e-17 4.6908 0.74295 0.234302 0.113081 0.278513 1.19736 -7.38744 7.31601 13.0894 -1.21668 1.14852 12.5803 3.15559 -3.17425 -25.8683 -6.19592 -8.02251 28.3639 0.0580795 0.133078 3.49662 -0.506937 -17.0858 23.5335 0.0481878 0.110415 1.32652 52.8209 -3.46065 -1.19736 -7.38743 7.31591 -9.76186 -1.99338 -0.909065 -12.5803 3.15559 -3.17425 40.5328 -11.4876 16.4943 -28.3639 0.0580795 0.133078 -5.17864 -1.15677 25.7606 -23.5335 0.0481876 0.110415 -5.74812 37.0116 8.25676 8.96978 -4.08401 1.97395 -0.258651 -5.04515 -11.7115 -0.827718 -37.6515 -0.63625 0.318108 -1.18598 0.0239957 -2.25899 -39.2341 -5.87393 -3.8703 4.51237 15.6226 0.756579 -9.59872 12.1348 8.39726e-16 -7.61185e-16 -2.15292e-17 -8.96978 -4.08401 1.97395 -3.95668 -6.83373 10.4224 0.827718 -37.6515 -0.63625 -0.167701 -0.625507 -0.0118336 2.25899 -39.2341 -5.87393 1.66348 3.91021 -15.1129 -0.756579 -9.59872 12.1348 1.98785e-16 -5.96354e-16 -1.27719e-14 
31.1303 91.5164 -70.3504 2.92986 3.69029 -19.6185 0 4.93189 -1.1181 -0.214866 -2.17303 1.19314 0 5.45428 1.04046 -0.223372 -1.48977 1.10241 -9.96389e-18 5.81666 0.111686 -0.209001 -0.356137 1.0701 -1.07264e-17 6.3178 -0.430704 -0.191756 1.4017 1.07051 -1.91593e-17 7.38567 -1.4624 0.0864589 1.58129 1.05763 -2.45986e-17 9.22288 -0.888062 0.512228 1.39936 0.9334 -2.82008e-17 10.2464 1.53133 0.000715576 0.50426 0.0501414 -1.25459e-17 4.64811 0.694664 -0.643453 -2.18852 -4.94322 -1.75924e-17 4.68175 0.4096 0.289095 -4.05742 -2.52076 -1.9515e-17 4.6908 0.74295 0.302396 0.431049 0.36599 1.19736 -7.38744 7.31601 12.4363 -1.05781 0.606802 12.5803 3.15559 -3.17425 -25.4927 -6.07333 -8.63296 28.3639 0.0580795 0.133078 3.20251 -0.422312 -15.6128 23.5335 0.0481878 0.110415 1.64141 52.7921 -3.73962 -1.19736 -7.38743 7.31591 -9.19878 -1.94535 -0.515669 -12.5803 3.15559 -3.17425 40.6703 -12.2844 17.2425 -28.3639 0.0580795 0.133078 -4.92619 -1.04015 24.4251 -23.5335 0.0481876 0.110415 -6.18695 37.9942 8.62399 8.96978 -4.08401 1.97395 -0.296284 -4.88651 -11.8145 -0.827718 -37.6515 -0.63625 0.307459 -1.14632 0.0230866 -2.25899 -39.2341 -5.87393 -3.68347 4.00083 15.5982 0.756579 -9.59872 12.1348 -1.01092e-16 -7.99074e-16 1.63597e-17 -8.96978 -4.08401 1.97395 -3.99562 -6.74043 10.4884 0.827718 -37.6515 -0.63625 -0.129196 -0.481939 -0.00895537 2.25899 -39.2341 -5.87393 1.48452 3.45807 -15.111 -0.756579 -9.59872 12.1348 1.98785e-16 -5.96354e-16 -1.27719e-14 
31.264 91.4011 -70.322 2.83246 3.52378 -19.5864 0 4.93189 -1.1181 -0.249584 -2.09112 1.18653 0 5.45428 1.04046 -0.251895 -1.41524 1.08836 -9.96389e-18 5.81666 0.111686 -0.225121 -0.294269 1.05853 -1.07264e-17 6.3178 -0.430704 -0.193404 1.44071 1.05967 -1.91593e-17 7.38567 -1.4624 0.0979354 1.5943 1.05032 -2.45986e-17 9.22288 -0.888062 0.538615 1.41373 0.922126 -2.82008e-17 10.2464 1.53133 0.00344376 0.50452 0.0498121 -1.25459e-17 4.64811 0.694664 -0.626132 -2.62158 -5.02187 -1.75924e-17 4.68175 0.4096 0.352323 -4.08747 -2.54612 -1.9515e-17 4.6908 0.74295 0.382815 0.735951 0.428123 1.19736 -7.38744 7.31601 11.7896 -0.88727 0.080356 12.5803 3.15559 -3.17425 -25.1767 -5.81547 -9.1216 28.3639 0.0580795 0.133078 2.94593 -0.35511 -14.3359 23.5335 0.0481878 0.110415 1.89832 52.5405 -4.04519 -1.19736 -7.38743 7.31591 -8.69088 -1.88298 -0.146436 -12.5803 3.15559 -3.17425 40.7224 -12.837 17.8364 -28.3639 0.0580795 0.133078 -4.70866 -0.945309 23.285 -23.5335 0.0481876 0.110415 -6.49019 38.4556 8.96477 8.96978 -4.08401 1.97395 -0.353714 -4.63556 -11.918 -0.827718 -37.6515 -0.63625 0.312097 -1.16359 0.0234816 -2.25899 -39.2341 -5.87393 -3.48484 3.49259 15.5721 0.756579 -9.59872 12.1348 -2.46781e-16 -8.03627e-16 2.09125e-17 -8.96978 -4.08401 1.97395 -4.05194 -6.55265 10.5721 0.827718 -37.6515 -0.63625 -0.105749 -0.394498 -0.0072497 2.25899 -39.2341 -5.87393 1.32406 2.99642 -15.113 -0.756579 -9.59872 12.1348 -5.30955e-17 -5.84547e-16 -1.2764e-14 
31.4157 91.2897 -70.2734 2.72194 3.36301 -19.5347 0 4.93189 -1.1181 -0.269655 -2.01731 1.18223 0 5.45428 1.04046 -0.268677 -1.34529 1.07937 -9.96389e-18 5.81666 0.111686 -0.23326 -0.229727 1.05231 -1.07264e-17 6.3178 -0.430704 -0.19085 1.49358 1.0545 -1.91593e-17 7.38567 -1.4624 0.110783 1.63158 1.04787 -2.45986e-17 9.22288 -0.888062 0.563883 1.4603 0.914961 -2.82008e-17 10.2464 1.53133 0.00615209 0.502507 0.0498945 -1.25459e-17 4.64811 0.694664 -0.614715 -3.0459 -5.11859 -1.75924e-17 4.68175 0.4096 0.423212 -4.09793 -2.58058 -1.9515e-17 4.6908 0.74295 0.466174 1.02117 0.467918 1.19736 -7.38744 7.31601 11.1235 -0.725517 -0.408344 12.5803 3.15559 -3.17425 -24.9192 -5.45848 -9.51451 28.3639 0.0580795 0.133078 2.73437 -0.304259 -13.2882 23.5335 0.0481878 0.110415 2.17499 52.137 -4.35955 -1.19736 -7.38743 7.31591 -8.18143 -1.81885 0.204145 -12.5803 3.15559 -3.17425 40.7161 -13.2952 18.2724 -28.3639 0.0580795 0.133078 -4.53558 -0.873483 22.3845 -23.5335 0.0481876 0.110415 -6.66962 38.6057 9.17715 8.96978 -4.08401 1.97395 -0.414932 -4.35714 -12.0373 -0.827718 -37.6515 -0.63625 0.326826 -1.21845 0.0247454 -2.25899 -39.2341 -5.87393 -3.2826 3.00852 15.545 0.756579 -9.59872 12.1348 1.50788e-16 -7.91203e-16 8.48841e-18 -8.96978 -4.08401 1.97395 -4.11066 -6.3067 10.6521 0.827718 -37.6515 -0.63625 -0.106137 -0.395945 -0.00727763 2.25899 -39.2341 -5.87393 1.19895 2.58052 -15.1188 -0.756579 -9.59872 12.1348 -7.22294e-16 -5.55146e-16 -1.27392e-14 
31.5832 91.181 -70.2146 2.61035 3.28053 -19.4837 0 4.93189 -1.1181 -0.265264 -1.96705 1.17628 0 5.45428 1.04046 -0.263751 -1.29291 1.07231 -9.96389e-18 5.81666 0.111686 -0.22527 -0.175663 1.04811 -1.07264e-17 6.3178 -0.430704 -0.177646 1.54817 1.05142 -1.91593e-17 7.38567 -1.4624 0.128192 1.68213 1.04584 -2.45986e-17 9.22288 -0.888062 0.587297 1.52661 0.907735 -2.82008e-17 10.2464 1.53133 0.00820842 0.498555 0.0507863 -1.25459e-17 4.64811 0.694664 -0.610163 -3.46317 -5.21488 -1.75924e-17 4.68175 0.4096 0.484778 -4.06804 -2.61562 -1.9515e-17 4.6908 0.74295 0.530094 1.29481 0.508535 1.19736 -7.38744 7.31601 10.4684 -0.573118 -0.835423 12.5803 3.15559 -3.17425 -24.7666 -5.02156 -9.7919 28.3639 0.0580795 0.133078 2.56684 -0.266881 -12.4616 23.5335 0.0481878 0.110415 2.45788 51.8091 -4.62251 -1.19736 -7.38743 7.31591 -7.68871 -1.7495 0.521423 -12.5803 3.15559 -3.17425 40.667 -13.674 18.5655 -28.3639 0.0580795 0.133078 -4.39982 -0.819355 21.682 -23.5335 0.0481876 0.110415 -6.82732 38.6678 9.34009 8.96978 -4.08401 1.97395 -0.457831 -4.14525 -12.1608 -0.827718 -37.6515 -0.63625 0.342884 -1.27825 0.0261393 -2.25899 -39.2341 -5.87393 -3.06965 2.51781 15.5154 0.756579 -9.59872 12.1348 1.70537e-16 -7.90586e-16 7.87126e-18 -8.96978 -4.08401 1.97395 -4.1558 -6.10557 10.7774 0.827718 -37.6515 -0.63625 -0.121156 -0.451957 -0.00836648 2.25899 -39.2341 -5.87393 1.10271 2.20673 -15.1266 -0.756579 -9.59872 12.1348 -7.42043e-16 -5.58465e-16 -1.2734e-14 
